<svg width="32" height="32" viewBox="0 0 32 32" xmlns="http://www.w3.org/2000/svg"
     xmlns:xlink="http://www.w3.org/1999/xlink">
  <title>1F92B4D7-0FE5-43F4-9EB6-30A3D9029357</title>
  <defs>
    <circle id="a" cx="16" cy="16" r="16"/>
    <mask id="b" x="0" y="0" width="32" height="32" fill="#fff">
      <use xlink:href="#a"/>
    </mask>
  </defs>
  <g fill="none" fill-rule="evenodd">
    <use stroke="#4DA6F3" mask="url(#b)" stroke-width="2" fill="#52AFFF" xlink:href="#a"/>
    <path
      d="M23.333 13.273v.681c.369 0 .667.306.667.682v8.182a.674.674 0 0 1-.667.682h-2.666a.674.674 0 0 1-.667-.682v-8.182c0-.376.298-.682.667-.682v-.681c0-.377.298-.682.666-.682l.476-3.24a.195.195 0 0 1 .19-.17c.097 0 .178.072.192.17l.476 3.24c.368 0 .666.305.666.682zm-2 8.522c0 .189.15.341.334.341h.666a.337.337 0 0 0 .334-.34v-.682c0-.189-.15-.341-.334-.341h-.666a.337.337 0 0 0-.334.34v.682zm0-2.727c0 .188.15.341.334.341h.666a.337.337 0 0 0 .334-.34v-.683c0-.188-.15-.34-.334-.34h-.666a.337.337 0 0 0-.334.34v.682zm1-3.75h-.666a.337.337 0 0 0-.334.341v.682c0 .188.15.34.334.34h.666a.337.337 0 0 0 .334-.34v-.682c0-.188-.15-.34-.334-.34zM8 22.818V11.91c0-.376.298-.682.667-.682h2.666c.369 0 .667.306.667.682v10.91a.674.674 0 0 1-.667.681H8.667A.674.674 0 0 1 8 22.818zm1.333-9.204c0 .188.15.34.334.34h.666a.337.337 0 0 0 .334-.34v-.682c0-.188-.15-.341-.334-.341h-.666a.337.337 0 0 0-.334.34v.683zm0 2.727c0 .188.15.34.334.34h.666a.337.337 0 0 0 .334-.34v-.682c0-.188-.15-.34-.334-.34h-.666a.337.337 0 0 0-.334.34v.682zm0 2.727c0 .188.15.341.334.341h.666a.337.337 0 0 0 .334-.34v-.683c0-.188-.15-.34-.334-.34h-.666a.337.337 0 0 0-.334.34v.682zm0 2.728c0 .188.15.34.334.34h.666a.337.337 0 0 0 .334-.34v-.682c0-.189-.15-.341-.334-.341h-.666a.337.337 0 0 0-.334.34v.683z"
      fill="#D1EAFF"/>
    <path
      d="M18.667 23.5h-5.334a.674.674 0 0 1-.666-.682V9.182c0-.377.298-.682.666-.682h5.334c.368 0 .666.305.666.682v13.636a.674.674 0 0 1-.666.682zM18 21.114c0-.189-.15-.341-.333-.341H17a.337.337 0 0 0-.333.34v.682c0 .189.149.341.333.341h.667a.337.337 0 0 0 .333-.34v-.682zm0-2.728c0-.188-.15-.34-.333-.34H17a.337.337 0 0 0-.333.34v.682c0 .188.149.341.333.341h.667a.337.337 0 0 0 .333-.34v-.683zm0-2.727c0-.188-.15-.34-.333-.34H17a.337.337 0 0 0-.333.34v.682c0 .188.149.34.333.34h.667a.337.337 0 0 0 .333-.34v-.682zm0-2.727c0-.188-.15-.341-.333-.341H17a.337.337 0 0 0-.333.34v.683c0 .188.149.34.333.34h.667a.337.337 0 0 0 .333-.34v-.682zm0-2.728c0-.188-.15-.34-.333-.34H17a.337.337 0 0 0-.333.34v.682c0 .189.149.341.333.341h.667a.337.337 0 0 0 .333-.34v-.683zm-2.667 10.91c0-.189-.149-.341-.333-.341h-.667a.337.337 0 0 0-.333.34v.682c0 .189.15.341.333.341H15a.337.337 0 0 0 .333-.34v-.682zm0-2.728c0-.188-.149-.34-.333-.34h-.667a.337.337 0 0 0-.333.34v.682c0 .188.15.341.333.341H15a.337.337 0 0 0 .333-.34v-.683zm0-2.727c0-.188-.149-.34-.333-.34h-.667a.337.337 0 0 0-.333.34v.682c0 .188.15.34.333.34H15a.337.337 0 0 0 .333-.34v-.682zm0-2.727c0-.188-.149-.341-.333-.341h-.667a.337.337 0 0 0-.333.34v.683c0 .188.15.34.333.34H15a.337.337 0 0 0 .333-.34v-.682zm0-2.728c0-.188-.149-.34-.333-.34h-.667a.337.337 0 0 0-.333.34v.682c0 .189.15.341.333.341H15a.337.337 0 0 0 .333-.34v-.683z"
      fill="#FFF"/>
  </g>
</svg>
