<svg width="68" height="16" viewBox="0 0 68 16" xmlns="http://www.w3.org/2000/svg">
  <title>1933F0CE-3BD0-4392-99FF-A5FD94682861</title>
  <g fill="none" fill-rule="evenodd">
    <path
      d="M43.481 14.988l-1.559.002a.514.514 0 0 1-.52-.508l-.008-8.051c-.003-2.075-1.664-3.828-3.784-3.888-2.203-.062-4.014 1.674-4.012 3.814l.009 8.133c0 .28-.233.508-.52.509L31.529 15a.514.514 0 0 1-.52-.508L31 6.467C30.996 2.987 33.808.07 37.364 0c3.639-.07 6.624 2.802 6.628 6.346L44 14.479c0 .281-.232.509-.519.51M59.994 2.667a5.34 5.34 0 0 0-5.327 5.339 5.34 5.34 0 0 0 5.338 5.327 5.34 5.34 0 0 0 5.328-5.338 5.34 5.34 0 0 0-5.339-5.328M60.008 16c-4.411.005-8.004-3.58-8.008-7.992C51.996 3.598 55.58.005 59.992 0c4.41-.004 8.004 3.58 8.008 7.992.004 4.411-3.58 8.004-7.992 8.008M49.193 15.706l-1.577.002a.529.529 0 0 1-.526-.532L47.076.794A.53.53 0 0 1 47.6.261l1.576-.002c.29 0 .526.238.526.532l.015 14.382a.53.53 0 0 1-.525.533M13.83.296l-2.488.002a.524.524 0 0 0-.421.216L7.05 5.797 3.174.522A.523.523 0 0 0 2.75.307L.263.31c-.216 0-.34.25-.21.425L5.416 8.03.07 15.331a.267.267 0 0 0 .211.426l2.489-.003c.165 0 .322-.08.421-.215l3.865-5.28 3.876 5.272c.1.135.256.214.422.214l2.488-.003c.216 0 .34-.25.21-.425l-5.36-7.29L14.042.72a.266.266 0 0 0-.212-.425"
      fill="#1D2533"/>
    <path
      d="M19.574 3.533a5.21 5.21 0 0 1 6.412.569l-8.56 5.581c-.732-2.25.093-4.81 2.148-6.15m7.94 6.711a.524.524 0 0 0-.462.282 5.272 5.272 0 0 1-1.79 1.966 5.21 5.21 0 0 1-6.414-.57l10.468-6.824a.537.537 0 0 0 .157-.736l-.426-.672C26.628-.12 21.525-1.15 17.84 1.507c-3.291 2.373-4.273 6.96-2.25 10.502 2.267 3.966 7.33 5.175 11.091 2.723a7.908 7.908 0 0 0 3.194-4.138.266.266 0 0 0-.25-.352l-2.113.002"
      fill="#1D2533"/>
    <path
      d="M63.442 7.97c.002 1.934-1.544 3.503-3.451 3.505-1.907.002-3.456-1.564-3.458-3.497-.002-1.934 1.544-3.503 3.451-3.505 1.908-.002 3.456 1.564 3.458 3.498"
      fill="#038DFF"/>
  </g>
</svg>
