<svg width="32" height="32" viewBox="0 0 32 32" xmlns="http://www.w3.org/2000/svg"><title>8525EFEF-7FC7-4A20-9F1F-7FE187E193A3</title><path d="M20 22.009A2.01 2.01 0 0 1 22.009 20h7.982A2.01 2.01 0 0 1 32 22.009v7.982A2.01 2.01 0 0 1 29.991 32H22.01A2.01 2.01 0 0 1 20 29.991V22.01zM0 2.002C0 .896.895 0 1.994 0h12.012C15.107 0 16 .89 16 2.002v27.996A1.999 1.999 0 0 1 14.006 32H1.994A1.993 1.993 0 0 1 0 29.998V2.002zm20-.008C20 .893 20.902 0 22.009 0h7.982C31.101 0 32 .895 32 1.994v12.012A2.003 2.003 0 0 1 29.991 16H22.01A2.002 2.002 0 0 1 20 14.006V1.994z" fill="#DDE1E4" fill-rule="evenodd"/></svg>