<svg width="14" height="14" viewBox="0 0 14 14" xmlns="http://www.w3.org/2000/svg"><title>5C670CA0-7D3A-45A3-AEC5-A83717373247</title><path d="M7 3.556A1.778 1.778 0 1 1 7 0a1.778 1.778 0 0 1 0 3.556zM1.778 8.778a1.778 1.778 0 1 1 0-3.556 1.778 1.778 0 0 1 0 3.556zm10.444 0a1.778 1.778 0 1 1 0-3.556 1.778 1.778 0 0 1 0 3.556zM7 14a1.778 1.778 0 1 1 0-3.556A1.778 1.778 0 0 1 7 14zM1.778 3.556a1.778 1.778 0 1 1 0-3.556 1.778 1.778 0 0 1 0 3.556zM12.222 14a1.778 1.778 0 1 1 0-3.556 1.778 1.778 0 0 1 0 3.556zM1.778 14a1.778 1.778 0 1 1 0-3.556 1.778 1.778 0 0 1 0 3.556zM12.222 3.556a1.778 1.778 0 1 1 0-3.556 1.778 1.778 0 0 1 0 3.556zM7 8.778a1.778 1.778 0 1 1 0-3.556 1.778 1.778 0 0 1 0 3.556z" fill="#FFF" fill-rule="evenodd"/></svg>