<svg width="7" height="9" viewBox="0 0 7 9" xmlns="http://www.w3.org/2000/svg"><title>DD54018C-DDB7-40D6-8BCD-76501114A40B</title><path d="M6.632 2.625H.368A.372.372 0 0 1 0 2.25v-.375C0 1.668.165 1.5.368 1.5h1.106c0-.55.113-.87.365-1.128C2.091.115 2.406 0 2.946 0h1.108c.54 0 .855.115 1.107.372s.365.578.365 1.128h1.106c.203 0 .368.168.368.375v.375a.372.372 0 0 1-.368.375zM4.607.936A.7.7 0 0 0 4.053.75H2.947a.7.7 0 0 0-.554.186.73.73 0 0 0-.182.564H4.79a.73.73 0 0 0-.183-.564zM6.26 3.1a.19.19 0 0 1 .185.2L6.12 8.473A.558.558 0 0 1 5.567 9H1.432a.558.558 0 0 1-.553-.527L.554 3.3a.19.19 0 0 1 .184-.2h5.523z" fill-rule="nonzero" fill="#AAB4BC"/></svg>