<svg width="18" height="18" viewBox="0 0 18 18" xmlns="http://www.w3.org/2000/svg" xmlns:xlink="http://www.w3.org/1999/xlink"><title>2EDA4C80-D79B-43AC-B264-A5B6EC0323FA</title><defs><rect id="a" x="3" y="3" width="12" height="12" rx="1"/><mask id="b" x="0" y="0" width="12" height="12" fill="#fff"><use xlink:href="#a"/></mask></defs><g fill="none" fill-rule="evenodd"><use stroke="#FFF" mask="url(#b)" stroke-width="2.5" xlink:href="#a"/><path d="M3 .505C3 .226 3.232 0 3.5 0c.276 0 .5.214.5.505v.99A.508.508 0 0 1 3.5 2a.495.495 0 0 1-.5-.505v-.99zm11 0c0-.279.232-.505.5-.505.276 0 .5.214.5.505v.99a.508.508 0 0 1-.5.505.495.495 0 0 1-.5-.505v-.99zm0 16c0-.279.232-.505.5-.505.276 0 .5.214.5.505v.99a.508.508 0 0 1-.5.505.495.495 0 0 1-.5-.505v-.99zm-11 0c0-.279.232-.505.5-.505.276 0 .5.214.5.505v.99a.508.508 0 0 1-.5.505.495.495 0 0 1-.5-.505v-.99zM0 14.5c0-.276.214-.5.505-.5h.99c.279 0 .505.232.505.5 0 .276-.214.5-.505.5h-.99A.508.508 0 0 1 0 14.5zm0-11c0-.276.214-.5.505-.5h.99c.279 0 .505.232.505.5 0 .276-.214.5-.505.5h-.99A.508.508 0 0 1 0 3.5zm16 0c0-.276.214-.5.505-.5h.99c.279 0 .505.232.505.5 0 .276-.214.5-.505.5h-.99A.508.508 0 0 1 16 3.5zm0 11c0-.276.214-.5.505-.5h.99c.279 0 .505.232.505.5 0 .276-.214.5-.505.5h-.99a.508.508 0 0 1-.505-.5z" fill="#FFF"/></g></svg>